<svg viewBox="0 0 1080 1080" fill="none" xmlns="http://www.w3.org/2000/svg">      <defs>  <filter id="filter" x="-20%" y="-20%" width="140%" height="140%" filterUnits="objectBoundingBox" primitiveUnits="userSpaceOnUse" color-interpolation-filters="linearRGB">    <feMorphology operator="dilate" radius="20 20" in="SourceAlpha" result="morphology"/>    <feFlood flood-color="#ffffff" flood-opacity="1" result="flood"/>    <feComposite in="flood" in2="morphology" operator="in" result="composite"/>    <feMerge result="merge">          <feMergeNode in="composite" result="mergeNode"/>      <feMergeNode in="SourceGraphic" result="mergeNode1"/>      </feMerge>  </filter></defs>      <g id="notion-avatar" filter="url(#filter)">        <g id="notion-avatar-face" fill="#ffffff">      <!--?xml version="1.0" encoding="UTF-8"?-->    <title>Face/ 10</title>    <g id="Face/-10" stroke="none" stroke-width="1" fill-rule="evenodd" stroke-linecap="round" stroke-linejoin="round">        <path d="M532,379 C664.54834,379 772,486.45166 772,619 C772,751.54834 684.54834,899 592,899 C535.13263,899 351.668898,801.612202 313.752775,718.980575 L313.322946,718.989282 L312,719 C267.81722,719 232,683.18278 232,639 C232,599.134956 261.158843,566.080325 299.312086,560.00055 C325.599297,455.979213 419.809919,379 532,379 Z M295.858895,624.545187 L304.141105,655.454813" id="Path" stroke="#000000" stroke-width="24"/>    </g>    </g><g id="notion-avatar-nose">      <!--?xml version="1.0" encoding="UTF-8"?-->    <title>Nose/ 4</title>    <g id="Nose/-4" stroke="none" stroke-width="1" fill="none" fill-rule="evenodd" stroke-linecap="round" stroke-linejoin="round">        <path d="M636.843426,596.000252 C661.659687,637.453214 673.277876,666.226337 671.697992,682.319621 C670.118108,698.412905 655.181344,703.444023 626.8877,697.412976" id="Line" stroke="#000000" stroke-width="16" transform="translate(649.363766, 647.939652) rotate(1.032339) translate(-649.363766, -647.939652) "/>    </g>    </g><g id="notion-avatar-mouth">      <!--?xml version="1.0" encoding="UTF-8"?-->    <title>Mouth/ 9</title>    <g id="Mouth/-9" stroke="none" stroke-width="1" fill="none" fill-rule="evenodd" stroke-linecap="round" stroke-linejoin="round">        <path d="M532,760 C569.387146,756.771376 597.387146,753.438043 616,750 C634.612854,746.561957 658.946187,740.228624 689,731 L667,780 C644.19345,787.762145 627.19345,792.095479 616,793 C604.80655,793.904521 588.80655,792.237855 568,788 L532,760 Z" id="Path" stroke="#000000" stroke-width="16"/>    </g>    </g><g id="notion-avatar-eyes">      <!--?xml version="1.0" encoding="UTF-8"?-->    <title>Eyes/ 7</title>    <g id="Eyes/-7" stroke="none" stroke-width="1" fill="none" fill-rule="evenodd">        <path d="M570,516 C578.836556,516 586,526.745166 586,540 C586,553.254834 578.836556,564 570,564 C561.163444,564 554,553.254834 554,540 C554,526.745166 561.163444,516 570,516 Z M708,516 C716.836556,516 724,526.745166 724,540 C724,553.254834 716.836556,564 708,564 C699.163444,564 692,553.254834 692,540 C692,526.745166 699.163444,516 708,516 Z M568,527 C564.686292,527 562,529.686292 562,533 C562,536.313708 564.686292,539 568,539 C571.313708,539 574,536.313708 574,533 C574,529.686292 571.313708,527 568,527 Z M706,527 C702.686292,527 700,529.686292 700,533 C700,536.313708 702.686292,539 706,539 C709.313708,539 712,536.313708 712,533 C712,529.686292 709.313708,527 706,527 Z" id="Combined-Shape" fill="#000000"/>    </g>    </g><g id="notion-avatar-eyebrows">      <!--?xml version="1.0" encoding="UTF-8"?-->    <title>Eyebrows/ 3</title>    <g id="Eyebrows/-3" stroke="none" stroke-width="1" fill="none" fill-rule="evenodd" stroke-linecap="round" stroke-linejoin="round">        <g id="Group" transform="translate(512.000000, 484.000000)" stroke="#000000" stroke-width="24">            <path d="M152,14.0251712 C167.712271,3.95186377 182.349308,-0.695225271 195.911111,0.0839040908 C206.159229,0.672661315 219.876442,6.74452014 237.511111,14.0251712 C241.312508,15.5946162 247.475471,17.5862258 256,20" id="Path" transform="translate(204.000000, 10.000000) scale(-1, 1) translate(-204.000000, -10.000000) "/>            <path d="M0,14.0251712 C15.7122706,3.95186377 30.3493076,-0.695225271 43.9111111,0.0839040908 C54.1592293,0.672661315 67.8764421,6.74452014 85.5111111,14.0251712 C89.3125078,15.5946162 95.4754707,17.5862258 104,20" id="Path"/>        </g>    </g>    </g><g id="notion-avatar-glasses">      <!--?xml version="1.0" encoding="UTF-8"?-->    <title>Glasses/ 10</title>    <g id="Glasses/-10" stroke="none" stroke-width="1" fill="none" fill-rule="evenodd">        <g id="Group" transform="translate(289.000000, 475.000000)" fill="#000000">            <rect id="Rectangle" x="201" y="0" width="300" height="23.4"/>            <path d="M329.571429,0 L370.642857,0 L370.642857,50.7333333 C363.797619,41.4888889 356.952381,36.8666667 350.107143,36.8666667 C343.261905,36.8666667 336.416667,41.4888889 329.571429,50.7333333 L329.571429,0 Z" id="Rectangle"/>            <path d="M209.035714,16.4666667 L226.635493,91.6470116 C228.329435,98.8829668 234.782715,104 242.214302,104 L295.809254,104 C302.413177,104 308.338607,99.9426587 310.726587,93.7856009 L340.714286,16.4666667 L340.714286,16.4666667 L209.035714,16.4666667 Z" id="Path" stroke="#000000" stroke-width="16" stroke-linecap="round" stroke-linejoin="round"/>            <path d="M359.5,16.4666667 L377.099778,91.6470116 C378.793721,98.8829668 385.247,104 392.678588,104 L446.273539,104 C452.877463,104 458.802893,99.9426587 461.190872,93.7856009 L491.178571,16.4666667 L491.178571,16.4666667 L359.5,16.4666667 Z" id="Path" stroke="#000000" stroke-width="16" stroke-linecap="round" stroke-linejoin="round" transform="translate(425.339286, 60.233333) scale(-1, 1) translate(-425.339286, -60.233333) "/>            <polygon id="Path" stroke="#000000" stroke-width="4" stroke-linecap="round" stroke-linejoin="round" points="201 2 4 66 0 75 201 22"/>        </g>    </g>    </g><g id="notion-avatar-hair">      <g id="Hairstyle/ 42"><path id="Path" fill-rule="evenodd" clip-rule="evenodd" d="M524 224C538 226.667 547.667 230.667 553 236C558.333 241.333 562.667 250.667 566 264C566 264 582 243 584 238C586 233 586 210 586 210C586 210 594.605 216.518 596 227C597.395 237.482 595.814 237.139 594 249C604.667 254.333 615.121 249.013 621.788 243.013C628.455 237.013 632.788 229.68 634.788 221.013C641.017 224.834 645.683 229.168 648.788 234.013C651.893 238.859 655.153 246.896 658.567 258.125C665.419 255.141 669.949 252.207 672.159 249.323C674.368 246.439 675.967 241.372 676.956 234.121C678.787 238.211 679.853 241.411 680.154 243.722C680.455 246.033 678.212 271.784 677 281C682.536 279.104 686.703 278.897 692 275C699.333 269.605 705 261 705 261C705 261 705.85 275.428 705 285C704.15 294.572 700.141 315.734 700.141 315.734C700.141 315.734 731.918 310.132 734.788 297.013C736.702 288.268 734.247 279.588 723 275C737 275 745.471 277.269 752.108 284.529C762.064 295.42 757.788 309.013 750.788 318.013C746.121 324.013 740.788 328.347 734.788 331.013C749.943 334.967 759.563 333.71 763.646 327.244L763.788 327.013C767.788 320.347 776.121 312.68 788.788 304.013L788.449 305.898C783.014 336.438 782.359 355.186 786.486 362.142C786.486 362.142 792.952 358.462 795 356C800.369 349.546 801.669 345.497 801 352C799.575 365.855 787.832 385.38 780.102 390.538C775.593 393.546 768.502 395.556 758.828 396.567C757.847 398.597 756.809 400.567 755.717 402.478C758.235 408.042 764.663 410.216 775 409C788.262 407.439 798.262 400.106 805 387C805 399.667 799.333 411 788 421L786.985 421.89C770.483 436.271 757.694 442.784 734 438C729.85 437.162 726.25 436.092 723.2 434.79C715.672 438.987 707.271 442.25 698 444.579L695.953 445.088C686.406 447.438 672.404 450.562 656.009 453.474C654.179 458.121 652.083 462.012 648 464C641.181 467.32 630.383 465.75 615.605 459.288C613.208 459.546 610.797 459.789 608.377 460.014L606.958 460.875C595.06 468.16 589.408 473.201 590 476C591.225 481.788 600.892 485.788 619 488L617.263 488.404C601.757 491.961 589.67 493.494 581 493C572.009 492.488 562.158 489.54 551.447 484.154L549.835 484.692C538.795 488.416 532.85 491.185 532 493C529.814 497.668 528.147 502.335 527 507L495.482 484.154C487.649 483.633 478.821 480.915 469 476C459.179 471.085 452.549 466.069 449.112 460.95C431.497 465.117 421.104 470.185 417.932 476.153C413.174 485.105 409.432 486.597 421 492C428.712 495.602 439.905 495.602 454.579 492L453.239 493.008C438.585 503.948 423.678 504.443 412 503C400.322 501.557 388.999 489.606 388.999 489.606L389.407 491.845C391.379 502.861 392.365 511.159 392.365 516.739C392.365 528.233 383.924 572.725 367.044 650.214L366 655L328.117 564.825H287.146C271.78 507.747 268.106 468.653 276.123 447.542C283.951 426.927 303.884 411.158 335.92 400.236L334 397C326.231 383.602 339.512 379.865 343.843 357.79C348.173 335.715 357.788 343.013 372.788 323.013C372.788 323.013 393 295 433 275C473 255 504.651 265.527 521.788 264.013C538.926 262.5 543 272 543 253C543 240.333 536.667 230.667 524 224Z" fill="black" stroke="black" stroke-width="12" stroke-linecap="round" stroke-linejoin="round"/></g>    </g><g id="notion-avatar-accessories">      <!--?xml version="1.0" encoding="UTF-8"?-->    <title>Accessories/ 0</title>    <g id="Accessories/-0" stroke="none" stroke-width="1" fill="none" fill-rule="evenodd"/>    </g><g id="notion-avatar-details">      <!--?xml version="1.0" encoding="UTF-8"?-->    <title>Details/ 0</title>    <g id="Details/-0" stroke="none" stroke-width="1" fill="none" fill-rule="evenodd"/>    </g><g id="notion-avatar-beard">      <!--?xml version="1.0" encoding="UTF-8"?-->    <title>Beard/ 0</title>    <g id="Beard/-0" stroke="none" stroke-width="1" fill="none" fill-rule="evenodd"/>    </g>      </g>      </svg>